<mxfile host="app.diagrams.net" modified="2022-03-08T08:11:15.942Z" agent="5.0 (Windows NT 10.0; Win64; x64) AppleWebKit/537.36 (KHTML, like Gecko) Chrome/98.0.4758.102 Safari/537.36" etag="o5N6By46Zd2IIR4KDbw6" version="16.6.5" type="github">
  <diagram id="6WamHJM3YX5ozM1lHUuu" name="Page-1">
    <mxGraphModel dx="1673" dy="934" grid="1" gridSize="10" guides="1" tooltips="1" connect="1" arrows="1" fold="1" page="1" pageScale="1" pageWidth="827" pageHeight="1169" math="0" shadow="0">
      <root>
        <mxCell id="0" />
        <mxCell id="1" parent="0" />
        <mxCell id="jKYQgYoo8GoiLYSZHEF5-3" style="edgeStyle=orthogonalEdgeStyle;rounded=0;orthogonalLoop=1;jettySize=auto;html=1;exitX=0.5;exitY=1;exitDx=0;exitDy=0;entryX=0.5;entryY=0;entryDx=0;entryDy=0;" edge="1" parent="1" source="jKYQgYoo8GoiLYSZHEF5-1" target="jKYQgYoo8GoiLYSZHEF5-2">
          <mxGeometry relative="1" as="geometry" />
        </mxCell>
        <mxCell id="jKYQgYoo8GoiLYSZHEF5-1" value="开始" style="ellipse;whiteSpace=wrap;html=1;aspect=fixed;" vertex="1" parent="1">
          <mxGeometry x="70" y="120" width="80" height="80" as="geometry" />
        </mxCell>
        <mxCell id="jKYQgYoo8GoiLYSZHEF5-5" style="edgeStyle=orthogonalEdgeStyle;rounded=0;orthogonalLoop=1;jettySize=auto;html=1;exitX=0.5;exitY=1;exitDx=0;exitDy=0;entryX=0.5;entryY=0;entryDx=0;entryDy=0;" edge="1" parent="1" source="jKYQgYoo8GoiLYSZHEF5-2" target="jKYQgYoo8GoiLYSZHEF5-4">
          <mxGeometry relative="1" as="geometry" />
        </mxCell>
        <mxCell id="jKYQgYoo8GoiLYSZHEF5-2" value="网页端导入配送任务" style="rounded=1;whiteSpace=wrap;html=1;" vertex="1" parent="1">
          <mxGeometry x="50" y="240" width="120" height="60" as="geometry" />
        </mxCell>
        <mxCell id="jKYQgYoo8GoiLYSZHEF5-7" style="edgeStyle=orthogonalEdgeStyle;rounded=0;orthogonalLoop=1;jettySize=auto;html=1;exitX=0.5;exitY=1;exitDx=0;exitDy=0;entryX=0.5;entryY=0;entryDx=0;entryDy=0;" edge="1" parent="1" source="jKYQgYoo8GoiLYSZHEF5-4" target="jKYQgYoo8GoiLYSZHEF5-6">
          <mxGeometry relative="1" as="geometry" />
        </mxCell>
        <mxCell id="jKYQgYoo8GoiLYSZHEF5-4" value="司机收到配送任务" style="rounded=1;whiteSpace=wrap;html=1;" vertex="1" parent="1">
          <mxGeometry x="50" y="340" width="120" height="60" as="geometry" />
        </mxCell>
        <mxCell id="jKYQgYoo8GoiLYSZHEF5-9" style="edgeStyle=orthogonalEdgeStyle;rounded=0;orthogonalLoop=1;jettySize=auto;html=1;exitX=0.5;exitY=1;exitDx=0;exitDy=0;entryX=0.5;entryY=0;entryDx=0;entryDy=0;" edge="1" parent="1" source="jKYQgYoo8GoiLYSZHEF5-6" target="jKYQgYoo8GoiLYSZHEF5-8">
          <mxGeometry relative="1" as="geometry" />
        </mxCell>
        <mxCell id="jKYQgYoo8GoiLYSZHEF5-6" value="任务状态更新为&lt;br&gt;装货" style="rounded=1;whiteSpace=wrap;html=1;" vertex="1" parent="1">
          <mxGeometry x="50" y="440" width="120" height="60" as="geometry" />
        </mxCell>
        <mxCell id="jKYQgYoo8GoiLYSZHEF5-11" style="edgeStyle=orthogonalEdgeStyle;rounded=0;orthogonalLoop=1;jettySize=auto;html=1;exitX=0.5;exitY=1;exitDx=0;exitDy=0;entryX=0.5;entryY=0;entryDx=0;entryDy=0;" edge="1" parent="1" source="jKYQgYoo8GoiLYSZHEF5-8" target="jKYQgYoo8GoiLYSZHEF5-10">
          <mxGeometry relative="1" as="geometry" />
        </mxCell>
        <mxCell id="jKYQgYoo8GoiLYSZHEF5-8" value="司机点击到达工厂" style="rounded=1;whiteSpace=wrap;html=1;" vertex="1" parent="1">
          <mxGeometry x="50" y="540" width="120" height="60" as="geometry" />
        </mxCell>
        <mxCell id="jKYQgYoo8GoiLYSZHEF5-13" style="edgeStyle=orthogonalEdgeStyle;rounded=0;orthogonalLoop=1;jettySize=auto;html=1;exitX=0.5;exitY=1;exitDx=0;exitDy=0;entryX=0.5;entryY=0;entryDx=0;entryDy=0;" edge="1" parent="1" source="jKYQgYoo8GoiLYSZHEF5-10" target="jKYQgYoo8GoiLYSZHEF5-12">
          <mxGeometry relative="1" as="geometry" />
        </mxCell>
        <mxCell id="jKYQgYoo8GoiLYSZHEF5-10" value="司机上传照片" style="rounded=1;whiteSpace=wrap;html=1;" vertex="1" parent="1">
          <mxGeometry x="280" y="250" width="120" height="60" as="geometry" />
        </mxCell>
        <mxCell id="jKYQgYoo8GoiLYSZHEF5-15" style="edgeStyle=orthogonalEdgeStyle;rounded=0;orthogonalLoop=1;jettySize=auto;html=1;exitX=0.5;exitY=1;exitDx=0;exitDy=0;entryX=0.5;entryY=0;entryDx=0;entryDy=0;" edge="1" parent="1" source="jKYQgYoo8GoiLYSZHEF5-12" target="jKYQgYoo8GoiLYSZHEF5-14">
          <mxGeometry relative="1" as="geometry" />
        </mxCell>
        <mxCell id="jKYQgYoo8GoiLYSZHEF5-12" value="任务状态更新为&lt;br&gt;运输中" style="rounded=1;whiteSpace=wrap;html=1;" vertex="1" parent="1">
          <mxGeometry x="280" y="350" width="120" height="60" as="geometry" />
        </mxCell>
        <mxCell id="jKYQgYoo8GoiLYSZHEF5-18" style="edgeStyle=orthogonalEdgeStyle;rounded=0;orthogonalLoop=1;jettySize=auto;html=1;exitX=0.5;exitY=1;exitDx=0;exitDy=0;entryX=0.5;entryY=0;entryDx=0;entryDy=0;" edge="1" parent="1" source="jKYQgYoo8GoiLYSZHEF5-14" target="jKYQgYoo8GoiLYSZHEF5-17">
          <mxGeometry relative="1" as="geometry" />
        </mxCell>
        <mxCell id="jKYQgYoo8GoiLYSZHEF5-14" value="司机完成运输任务" style="rounded=1;whiteSpace=wrap;html=1;" vertex="1" parent="1">
          <mxGeometry x="280" y="450" width="120" height="60" as="geometry" />
        </mxCell>
        <mxCell id="jKYQgYoo8GoiLYSZHEF5-21" style="edgeStyle=orthogonalEdgeStyle;rounded=0;orthogonalLoop=1;jettySize=auto;html=1;exitX=0.5;exitY=1;exitDx=0;exitDy=0;entryX=0.5;entryY=0;entryDx=0;entryDy=0;" edge="1" parent="1" source="jKYQgYoo8GoiLYSZHEF5-17" target="jKYQgYoo8GoiLYSZHEF5-20">
          <mxGeometry relative="1" as="geometry" />
        </mxCell>
        <mxCell id="jKYQgYoo8GoiLYSZHEF5-17" value="任务状态更新为&lt;br&gt;完成" style="rounded=1;whiteSpace=wrap;html=1;" vertex="1" parent="1">
          <mxGeometry x="280" y="540" width="120" height="60" as="geometry" />
        </mxCell>
        <mxCell id="jKYQgYoo8GoiLYSZHEF5-20" value="结束" style="ellipse;whiteSpace=wrap;html=1;aspect=fixed;" vertex="1" parent="1">
          <mxGeometry x="300" y="640" width="80" height="80" as="geometry" />
        </mxCell>
        <mxCell id="jKYQgYoo8GoiLYSZHEF5-26" style="rounded=0;orthogonalLoop=1;jettySize=auto;html=1;exitX=1;exitY=0.25;exitDx=0;exitDy=0;entryX=0.75;entryY=0;entryDx=0;entryDy=0;" edge="1" parent="1" source="jKYQgYoo8GoiLYSZHEF5-23" target="jKYQgYoo8GoiLYSZHEF5-24">
          <mxGeometry relative="1" as="geometry" />
        </mxCell>
        <mxCell id="jKYQgYoo8GoiLYSZHEF5-29" value="Leg1" style="edgeLabel;html=1;align=center;verticalAlign=middle;resizable=0;points=[];" vertex="1" connectable="0" parent="jKYQgYoo8GoiLYSZHEF5-26">
          <mxGeometry x="-0.1922" y="1" relative="1" as="geometry">
            <mxPoint as="offset" />
          </mxGeometry>
        </mxCell>
        <mxCell id="jKYQgYoo8GoiLYSZHEF5-23" value="工厂&lt;br&gt;（Ex:富士康）" style="whiteSpace=wrap;html=1;aspect=fixed;" vertex="1" parent="1">
          <mxGeometry x="560" y="150" width="80" height="80" as="geometry" />
        </mxCell>
        <mxCell id="jKYQgYoo8GoiLYSZHEF5-28" style="rounded=0;orthogonalLoop=1;jettySize=auto;html=1;exitX=0.75;exitY=1;exitDx=0;exitDy=0;entryX=1;entryY=0.75;entryDx=0;entryDy=0;" edge="1" parent="1" source="jKYQgYoo8GoiLYSZHEF5-24" target="jKYQgYoo8GoiLYSZHEF5-25">
          <mxGeometry relative="1" as="geometry" />
        </mxCell>
        <mxCell id="jKYQgYoo8GoiLYSZHEF5-30" value="Leg2" style="edgeLabel;html=1;align=center;verticalAlign=middle;resizable=0;points=[];" vertex="1" connectable="0" parent="jKYQgYoo8GoiLYSZHEF5-28">
          <mxGeometry x="0.156" y="-3" relative="1" as="geometry">
            <mxPoint as="offset" />
          </mxGeometry>
        </mxCell>
        <mxCell id="jKYQgYoo8GoiLYSZHEF5-24" value="保税区" style="whiteSpace=wrap;html=1;aspect=fixed;" vertex="1" parent="1">
          <mxGeometry x="720" y="270" width="80" height="80" as="geometry" />
        </mxCell>
        <mxCell id="jKYQgYoo8GoiLYSZHEF5-32" style="edgeStyle=none;rounded=0;orthogonalLoop=1;jettySize=auto;html=1;exitX=0.75;exitY=1;exitDx=0;exitDy=0;entryX=0.75;entryY=0;entryDx=0;entryDy=0;" edge="1" parent="1" source="jKYQgYoo8GoiLYSZHEF5-25" target="jKYQgYoo8GoiLYSZHEF5-31">
          <mxGeometry relative="1" as="geometry" />
        </mxCell>
        <mxCell id="jKYQgYoo8GoiLYSZHEF5-25" value="SFDsc仓库" style="whiteSpace=wrap;html=1;aspect=fixed;" vertex="1" parent="1">
          <mxGeometry x="560" y="390" width="80" height="80" as="geometry" />
        </mxCell>
        <mxCell id="jKYQgYoo8GoiLYSZHEF5-33" style="edgeStyle=none;rounded=0;orthogonalLoop=1;jettySize=auto;html=1;exitX=0.25;exitY=0;exitDx=0;exitDy=0;entryX=0.25;entryY=1;entryDx=0;entryDy=0;" edge="1" parent="1" source="jKYQgYoo8GoiLYSZHEF5-31" target="jKYQgYoo8GoiLYSZHEF5-25">
          <mxGeometry relative="1" as="geometry" />
        </mxCell>
        <mxCell id="jKYQgYoo8GoiLYSZHEF5-31" value="经销商仓库" style="whiteSpace=wrap;html=1;aspect=fixed;" vertex="1" parent="1">
          <mxGeometry x="560" y="590" width="80" height="80" as="geometry" />
        </mxCell>
      </root>
    </mxGraphModel>
  </diagram>
</mxfile>
